<?xml version="1.0" encoding="UTF-8" standalone="no"?>
<!-- Created with Inkscape (http://www.inkscape.org/) -->

<svg
   width="297mm"
   height="210mm"
   viewBox="0 0 297 210"
   version="1.1"
   id="svg1"
   xmlns="http://www.w3.org/2000/svg"
   xmlns:svg="http://www.w3.org/2000/svg">
  <defs
     id="defs1">
    <clipPath
       clipPathUnits="userSpaceOnUse"
       id="clipPath3">
      <path
         d="M 0,612 H 792 V 0 H 0 Z"
         transform="translate(-277.47661,-253.13961)"
         id="path3" />
    </clipPath>
    <clipPath
       clipPathUnits="userSpaceOnUse"
       id="clipPath5">
      <path
         d="M 0,612 H 792 V 0 H 0 Z"
         transform="translate(-280.82031,-220.66891)"
         id="path5" />
    </clipPath>
    <clipPath
       clipPathUnits="userSpaceOnUse"
       id="clipPath7">
      <path
         d="M 0,612 H 792 V 0 H 0 Z"
         transform="translate(-257.4766,-303.35161)"
         id="path7" />
    </clipPath>
    <clipPath
       clipPathUnits="userSpaceOnUse"
       id="clipPath9">
      <path
         d="M 0,612 H 792 V 0 H 0 Z"
         transform="translate(-256.03761,-382.87211)"
         id="path9" />
    </clipPath>
    <clipPath
       clipPathUnits="userSpaceOnUse"
       id="clipPath11">
      <path
         d="M 0,612 H 792 V 0 H 0 Z"
         transform="translate(-221.4097,-374.80221)"
         id="path11" />
    </clipPath>
    <clipPath
       clipPathUnits="userSpaceOnUse"
       id="clipPath13">
      <path
         d="M 0,612 H 792 V 0 H 0 Z"
         transform="translate(-290.66601,-374.80221)"
         id="path13" />
    </clipPath>
  </defs>
  <g
     id="layer1">
    <path
       id="path1"
       d="M 55.195359,124.10671 H 66.713 l -8.202082,-11.95172 c 4.725292,-2.28203 7.441405,-6.41201 7.441405,-12.00547 0,-8.694045 -6.519497,-14.072535 -16.896124,-14.072535 H 31.672248 v 38.029725 h 10.756965 v -10.10377 h 5.866309 z m -0.107488,-23.95719 c 0,3.47679 -2.228287,5.53971 -6.684863,5.53971 H 42.429213 V 94.551925 h 5.973795 c 4.456576,0 6.684863,2.06706 6.684863,5.597595 z m 0,0"
       style="display:inline;fill:#00449b icc-color(Adobe-RGB-1998, 0.06698608, 0.2749939, 0.59199524);fill-opacity:1;fill-rule:nonzero;stroke:none;stroke-width:0.352778"
       aria-label="R" />
    <path
       id="path2"
       d="m 0,0 c 0,3.122 0.061,6.037 -0.018,8.948 -0.07,2.615 0.969,4.451 3.201,5.85 8.764,5.491 15.636,12.831 20.273,22.056 9.534,18.971 8.957,37.572 -4.024,54.673 -18.731,24.678 -55.908,26.677 -77.493,4.413 -12.595,-12.991 -17.497,-28.686 -13.498,-46.439 3.38,-15.005 12.589,-26.224 25.311,-34.597 2.42,-1.592 3.579,-3.537 3.477,-6.406 -0.1,-2.79 -0.022,-5.587 -0.022,-8.498 z m -21.707,-10.91 c -6.349,0 -12.698,-0.057 -19.045,0.032 -2.057,0.029 -4.172,0.199 -6.149,0.725 -4.161,1.106 -6.453,4.223 -6.564,8.522 -0.056,2.19 -0.087,4.385 0.018,6.571 0.064,1.322 -0.394,2.085 -1.477,2.872 -13.922,10.116 -23.458,23.336 -27.19,40.235 -3.861,17.48 -0.015,33.62 10.322,48.059 10.588,14.79 25.201,23.339 43.242,25.456 C 3.389,125.308 33.004,104.954 39.432,73.345 43.104,55.29 38.679,38.831 28.279,23.854 23.852,17.478 18.428,12.046 12.07,7.579 11.194,6.964 10.774,6.343 10.845,5.246 c 0.1,-1.567 0.028,-3.144 0.026,-4.718 -0.005,-6.881 -3.943,-11.167 -10.838,-11.34 -7.243,-0.18 -14.493,-0.04 -21.74,-0.04 z"
       style="display:inline;fill:#ffd000 icc-color(Adobe-RGB-1998, 0.99598694, 0.81199646, 0.06698608);fill-opacity:1;fill-rule:nonzero;stroke:none"
       transform="matrix(0.35277776,0,0,-0.35277776,97.469793,122.13682)"
       clip-path="url(#clipPath3)" />
    <path
       id="path4"
       d="M 0,0 C -2.469,0.562 -5.294,1.274 -8.148,1.847 -21.136,4.453 -34.034,3.973 -46.835,0.616 -47.432,0.46 -48.018,0.252 -48.62,0.129 c -3.065,-0.626 -5.813,1.076 -6.588,4.061 -0.706,2.72 0.88,5.625 3.835,6.354 4.567,1.127 9.162,2.26 13.812,2.895 13.055,1.787 25.977,0.881 38.697,-2.625 C 4.575,9.867 6.317,7.347 5.68,4.26 5.144,1.667 3.047,-0.022 0,0"
       style="display:inline;fill:#ffd000 icc-color(Adobe-RGB-1998, 0.99598694, 0.81199646, 0.06698608);fill-opacity:1;fill-rule:nonzero;stroke:none"
       transform="matrix(0.35277776,0,0,-0.35277776,98.649377,133.59176)"
       clip-path="url(#clipPath5)" />
    <path
       id="path6"
       d="m 0,0 c -2.263,0 -4.218,-0.037 -6.171,0.007 -7.371,0.169 -11.242,6.568 -7.784,13.055 2.482,4.653 5.177,9.196 7.857,13.74 1.552,2.63 4.823,3.47 7.321,2.034 2.518,-1.447 3.451,-4.657 2.004,-7.326 -1.659,-3.059 -3.434,-6.055 -5.154,-9.08 -0.269,-0.472 -0.518,-0.955 -0.892,-1.648 2.13,0 4.021,0.021 5.91,-0.004 7.651,-0.101 11.53,-6.586 7.879,-13.325 -2.433,-4.49 -5.037,-8.889 -7.631,-13.289 -1.647,-2.796 -4.812,-3.666 -7.398,-2.157 -2.663,1.555 -3.483,4.752 -1.883,7.604 C -4.051,-7.016 -2.105,-3.674 0,0"
       style="display:inline;fill:#ffd000 icc-color(Adobe-RGB-1998, 0.99598694, 0.81199646, 0.06698608);fill-opacity:1;fill-rule:nonzero;stroke:none"
       transform="matrix(0.35277776,0,0,-0.35277776,90.414237,104.42315)"
       clip-path="url(#clipPath7)" />
    <path
       id="path8"
       d="m 0,0 v 0 c 2.579,0 4.689,2.11 4.689,4.689 v 13.467 c 0,2.579 -2.11,4.689 -4.689,4.689 -2.579,0 -4.688,-2.11 -4.688,-4.689 V 4.689 C -4.688,2.11 -2.579,0 0,0"
       style="display:inline;fill:#ffd000 icc-color(Adobe-RGB-1998, 0.99598694, 0.81199646, 0.06698608);fill-opacity:1;fill-rule:nonzero;stroke:none"
       transform="matrix(0.35277776,0,0,-0.35277776,89.906592,76.370075)"
       clip-path="url(#clipPath9)" />
    <path
       id="path10"
       d="m 0,0 v 0 c 2.233,1.29 3.005,4.172 1.716,6.405 l -6.734,11.663 c -1.289,2.234 -4.171,3.006 -6.404,1.717 -2.234,-1.29 -3.006,-4.172 -1.717,-6.406 L -6.405,1.716 C -5.116,-0.517 -2.233,-1.29 0,0"
       style="display:inline;fill:#ffd000 icc-color(Adobe-RGB-1998, 0.99598694, 0.81199646, 0.06698608);fill-opacity:1;fill-rule:nonzero;stroke:none"
       transform="matrix(0.35277776,0,0,-0.35277776,77.690636,79.216955)"
       clip-path="url(#clipPath11)" />
    <path
       id="path12"
       d="m 0,0 v 0 c -2.233,1.29 -3.005,4.172 -1.716,6.405 l 6.734,11.663 c 1.289,2.234 4.171,3.006 6.404,1.717 2.234,-1.29 3.006,-4.172 1.717,-6.406 L 6.405,1.716 C 5.116,-0.517 2.233,-1.29 0,0"
       style="display:inline;fill:#ffd000 icc-color(Adobe-RGB-1998, 0.99598694, 0.81199646, 0.06698608);fill-opacity:1;fill-rule:nonzero;stroke:none"
       transform="matrix(0.35277776,0,0,-0.35277776,102.12272,79.216955)"
       clip-path="url(#clipPath13)" />
    <path
       id="path14"
       d="m 135.79405,94.663545 v 14.175885 c 0,4.9444 -2.497,6.95358 -5.53971,6.95358 -3.09645,0 -4.89066,-1.79007 -4.89066,-6.35413 V 94.663545 H 115.0408 v 16.457915 c 0,9.34723 5.27099,13.47308 12.49742,13.47308 3.36517,0 6.5195,-1.19476 8.74366,-3.63802 v 3.15019 h 9.83505 V 94.663545 Z m 33.3592,21.021975 c -0.8723,0.59945 -2.01331,0.92604 -3.15019,0.92604 -1.84795,0 -3.10059,-1.19889 -3.10059,-3.3693 v -9.78131 h 6.73861 v -7.714265 h -6.73861 v -7.65638 h -10.31875 v 7.65638 h -4.29121 v 7.714265 h 4.29121 v 9.8888 c 0,7.55302 4.3987,11.24479 11.95173,11.24479 2.71611,0 5.37848,-0.54157 7.16855,-1.68259 z m 10.32082,-24.283785 c 3.80339,0 6.30039,-2.38952 6.30039,-5.65134 0,-3.09645 -2.497,-5.3206 -6.30039,-5.3206 -3.80338,0 -6.30039,2.38951 -6.30039,5.48596 0,3.09646 2.49701,5.48598 6.30039,5.48598 z m -5.15937,32.704975 h 10.31875 V 94.663545 H 174.3147 Z m 36.83392,-29.443165 -7.44554,17.979265 -7.06106,-17.979265 h -10.59574 l 12.11709,29.443165 h 10.64948 l 12.1667,-29.443165 z m 22.64771,-0.49196 c -4.6178,0 -9.61595,1.19476 -12.98525,3.42305 l 3.47679,7.007325 c 2.01331,-1.57509 5.16351,-2.55075 7.98711,-2.55075 4.07624,0 6.08542,1.68259 6.24665,4.67155 h -5.86631 c -9.12399,0 -13.09274,3.36931 -13.09274,8.80153 0,5.10563 3.91087,9.07025 10.97607,9.07025 4.29121,0 7.2223,-1.46761 8.68991,-4.29121 v 3.80338 h 9.61595 v -16.35042 c 0,-9.347235 -5.48597,-13.584705 -15.04818,-13.584705 z M 233.416,118.07504 c -2.44326,0 -3.85713,-1.2485 -3.85713,-2.98483 0,-1.79421 1.19475,-2.98897 4.51032,-2.98897 h 4.45244 v 2.55075 c -0.81442,2.33991 -2.8236,3.42305 -5.10563,3.42305 z m 0,0"
       style="display:inline;fill:#00449b icc-color(Adobe-RGB-1998, 0.06698608, 0.2749939, 0.59199524);fill-opacity:1;fill-rule:nonzero;stroke:none;stroke-width:0.352778"
       aria-label="utiva" />
  </g>
</svg>
